<svg
  xmlns="http://www.w3.org/2000/svg"
  xml:space="preserve"
  style="fill-rule:evenodd;clip-rule:evenodd;stroke-linejoin:round;stroke-miterlimit:2"
  viewBox="0 0 256 256"
>
  <title>justin forlenza logo</title>
  <path
    d="M123.5 153.6c0 16.5-9.3 31.7-24 39.1l-32 16.4 5.5-20.2 19.5-10a28.2 28.2 0 0 0 15.4-25.2v-39.5l15.6-22.5v62ZM163.6 77.2l19.5-10 5.4-20.3-32 16.4a43.8 43.8 0 0 0-24 39v62l15.7-22.5v-20l23.6-13 5.4-20.8-29 16v-1.7c0-10.6 6-20.3 15.4-25.1Z"
    transform="translate(-74.1 -74.1) scale(1.579)"
  />
  <style>
  path {
    fill: black;
  }
  @media (prefers-color-scheme: dark) {
    path {
      fill: white;
    }
  }
  </style>
</svg>
